<?xml version="1.0" encoding="UTF-8"?>
<svg width="152px" height="51px" viewBox="0 0 152 51" version="1.1" xmlns="http://www.w3.org/2000/svg" xmlns:xlink="http://www.w3.org/1999/xlink">
    <title>CCFL logo</title>
    <defs>
        <polygon id="path-1" points="0 0 9 0 9 50 0 50"></polygon>
        <polygon id="path-3" points="0 0 35 0 35 48 0 48"></polygon>
    </defs>
    <g id="Page-1" stroke="none" stroke-width="1" fill="none" fill-rule="evenodd">
        <g id="ChiroCare-Home-Page-desktop" transform="translate(-57, -72)">
            <g id="CCFL-logo" transform="translate(57, 72)">
                <path d="M115,12.6900632 L115,2 L77.6163533,2 L65.8852461,2 C70.9170537,3.32346808 74.6216139,5.75093838 78.2829102,9.39436816 L77.6163533,9.99270919 L69.6330701,17.1609385 C67.1450312,14.0172384 63.4133394,11.9908865 59.4059322,11.9908865 C52.1500685,11.9908865 46,18.41916 46,25.9647817 C46,33.58084 52.1500685,40.0083721 59.4059322,40.0083721 C63.4830016,40.0083721 67.1450312,37.9827616 69.701999,34.83832 L77.6163533,41.9375956 L78.2719109,42.5255565 C74.7455392,46.1979023 70.8114605,48.6995165 65.8771799,50 L77.6163533,50 L89.4325218,50 L89.4325218,31.9734009 L110.174246,31.9734009 L110.174246,21.2840791 L89.4325218,21.2840791 L89.4325218,12.6900632 L115,12.6900632 Z" id="Fill-1" fill="#002679"></path>
                <path d="M35.2354303,16.9402985 C36.7162461,13.2820896 39.0586934,10.0223881 42,7.41865672 C37.5103699,3.44850746 31.6081576,1 25.2406498,1 C11.5605254,1 0,12.3925373 0,25.9649254 C0,39.5373134 11.5605254,51 25.2406498,51 C31.6045282,51 37.5023851,48.5552239 41.9912893,44.5425373 C39.0797442,41.9522388 36.7547183,38.7171642 35.2731766,35.0925373 C32.7507086,38.1447761 29.1923954,40.1 25.2406498,40.1 C18.0586934,40.1 11.9706533,33.630597 11.9706533,25.9649254 C11.9706533,18.3701493 18.0586934,11.9 25.2406498,11.9 C29.1394055,11.9 32.7739371,13.869403 35.2354303,16.9402985" id="Fill-3" fill="#00973A"></path>
                <g id="Group-7" transform="translate(115, 0)">
                    <mask id="mask-2" fill="white">
                        <use xlink:href="#path-1"></use>
                    </mask>
                    <g id="Clip-6"></g>
                    <path d="M0,50 C0,50 9.76929318,43.8380692 8.95136332,30.6884592 C8.2251639,19.0385705 3.46129574,11.1717962 8.9620652,-0.000225409005 C8.9620652,-0.000225409005 8.13114019,0.904416063 7.15038877,2.60475132 C7.02349498,2.82490078 6.79111116,2.97291936 6.53273705,2.97817891 L6.50292466,2.97968163 C6.35462709,2.99245481 6.23079098,3.0931375 6.16887293,3.22537745 C6.09625299,3.38241239 6.12530096,3.49812234 6.18951228,3.58227504 C6.34545405,3.78213769 6.38826159,4.04361213 6.28124273,4.27202659 C6.01522442,4.83630047 5.75379263,5.45392114 5.50764925,6.12263452 C5.42126974,6.35555716 5.19882339,6.50658119 4.94656465,6.52010573 L4.93815602,6.52010573 C4.60333987,6.54264663 4.35566765,6.83492697 4.36254743,7.16477549 C4.36713396,7.34735678 4.44510484,7.47208309 4.54677276,7.55698715 C4.78144983,7.75609844 4.88235333,8.0664115 4.80514687,8.3616973 C4.68436844,8.82979667 4.57276305,9.31517739 4.47491724,9.81859083 C4.42675875,10.065038 4.22571618,10.2528788 3.97345743,10.2889443 L3.96351997,10.290447 C3.43454102,10.3723456 3.13794589,10.83218 3.34281057,11.3168094 C3.39632,11.4430384 3.47887741,11.5429697 3.57290112,11.6203601 C3.93141431,11.9186514 4.11181753,12.3762317 4.08047629,12.8368174 C4.07283209,12.9510246 4.06518788,13.0667346 4.05983694,13.1831959 C4.03308223,13.6730848 3.75712645,14.1096269 3.33745963,14.3756095 C3.11119118,14.5198713 2.90403324,14.7580535 2.85511033,15.1495138 C2.80083648,15.5898127 3.18610438,15.9827757 3.62641055,16.0819557 L3.63634802,16.0842098 C3.89319329,16.1390593 4.08353397,16.347187 4.10340891,16.6034019 C4.12710594,16.9016931 4.15615392,17.2037412 4.19055284,17.5087947 C4.21960081,17.7635069 4.06671672,17.9986836 3.82439545,18.0941068 C3.42460356,18.2503903 3.12724401,18.6193097 3.09284509,19.0716305 C3.04774428,19.6554398 3.4712332,20.1904105 4.0583081,20.2888391 L4.07130325,20.2903418 C4.42370107,20.3451913 4.70653663,20.602909 4.77304121,20.946282 L4.81126223,21.1416365 C4.87853123,21.4902691 4.70806547,21.8419071 4.38930215,22.0094612 C3.98186606,22.2243511 3.69826607,22.6458659 3.69673723,23.1455226 C3.69520839,23.7210669 4.18825957,24.3063789 4.76310374,24.4123212 C4.78832962,24.4168293 4.81355549,24.4213375 4.83878137,24.424343 C5.17206868,24.4671707 5.44190909,24.7106124 5.49159642,25.0374555 L5.49388968,25.05098 C5.54357701,25.3763203 5.36776031,25.7016607 5.05740561,25.826387 C4.53301319,26.0375201 4.15309623,26.5431876 4.14850971,27.1510406 C4.14392319,27.8152458 4.61633502,28.4065687 5.27526544,28.5568414 C5.3524719,28.5748741 5.42967836,28.5861446 5.50535599,28.5914041 C5.75837915,28.6094368 5.96247941,28.7972777 5.98541202,29.0444762 L5.98617644,29.0557467 C6.00834463,29.306702 5.83558562,29.5306083 5.58638455,29.5862092 C4.84031021,29.7507577 4.26623046,30.4074493 4.27387466,31.2189217 C4.28075445,31.9327169 4.76769027,32.569873 5.46178402,32.7780007 C5.59097108,32.8163202 5.71862929,32.8388611 5.84399424,32.8471261 C6.02821957,32.8583966 6.16887293,33.0116747 6.16810851,33.1927533 L6.16810851,33.1995155 C6.16657967,33.3648155 6.04656566,33.5060718 5.88068642,33.5346236 C5.34253443,33.628544 4.22036523,33.969663 4.12481268,35.138033 C4.04760621,36.0847508 4.80132476,36.9300345 5.76449452,37.0119332 C5.85163845,37.0194468 5.91584976,37.0975886 5.90438346,37.183244 C5.88985947,37.2959485 5.87380664,37.4094044 5.85775381,37.5221089 C5.84552308,37.6070129 5.76373009,37.6663706 5.67735059,37.650592 C5.50688483,37.6190347 5.3264816,37.6122725 5.1391986,37.6378188 C4.49173449,37.7242256 3.84197712,38.3313272 3.72349195,38.9624724 C3.57672322,39.7423876 4.00479867,40.4704586 4.68513286,40.7695013 C4.9373916,40.8799517 5.06275655,41.1609616 4.98249241,41.4201819 L4.97867031,41.430701 C4.89840616,41.6861645 4.64079647,41.8439508 4.37172048,41.8078854 C4.30292264,41.7981177 4.23259596,41.7943609 4.16074044,41.7951122 C3.51633401,41.8033772 2.95601383,42.2647143 2.83370656,42.8860918 C2.74426937,43.3399153 2.89256693,43.7734519 3.18457554,44.0762514 C3.50028118,44.4053485 3.5721367,44.8937347 3.35733456,45.29346 L3.34816151,45.30999 C3.15399872,45.6736498 2.76185104,45.8855343 2.34371306,45.8720098 C2.32307371,45.8720098 2.30166994,45.8720098 2.28026616,45.8727611 C1.87512333,45.887037 1.52272551,46.1755606 1.43711042,46.5647668 C1.39812498,46.7360776 1.41264897,46.9036316 1.46768724,47.0539043 C1.64656162,47.5483014 1.5823503,48.097548 1.25747162,48.5145547 C0.866852776,49.015714 0.447950376,49.5108625 0,50 L0,50 Z" id="Fill-5" fill="#00973A" mask="url(#mask-2)"></path>
                </g>
                <g id="Group-10" transform="translate(117, 2)">
                    <mask id="mask-4" fill="white">
                        <use xlink:href="#path-3"></use>
                    </mask>
                    <g id="Clip-9"></g>
                    <path d="M0,48 L35.0002978,48 L35.0002978,37.3099368 L11.779426,37.3099368 L11.779426,0 L7.88669903,0 C4.05439306,8.82362455 6.5660001,15.6325182 7.84979422,24.2291879 C8.08575292,25.8092379 8.28023403,27.449682 8.3862247,29.17413 C9.09345182,40.6946045 1.67352269,46.7795919 0,48 Z" id="Fill-8" fill="#002679" mask="url(#mask-4)"></path>
                </g>
            </g>
        </g>
    </g>
</svg>