<svg xmlns="http://www.w3.org/2000/svg" fill="none" viewBox="0 0 124 124" height="124" width="124">
<path fill="#8A2432" d="M105.085 17.1129C93.199 5.75476 77.6203 -0.327738 61.2038 0.0136267C44.7872 0.354991 29.4569 7.08919 18.0987 18.9749C6.7406 30.8296 0.658102 46.4082 0.999467 62.8558C1.34083 79.2723 8.07503 94.6027 19.9297 105.961C27.75 113.471 37.2152 118.653 47.4561 121.229C52.7317 122.564 58.2246 123.184 63.8106 123.06C80.2271 122.719 95.5575 115.985 106.916 104.099C118.274 92.2442 124.356 76.6655 123.984 60.2179C123.642 43.8014 116.908 28.471 105.054 17.1129H105.085ZM105.829 103.013C94.7506 114.588 79.8237 121.136 63.8106 121.477C47.7975 121.819 32.5912 115.891 21.0469 104.813C9.47152 93.7648 2.89249 78.8378 2.55112 62.8247C2.20976 46.8116 8.13709 31.6054 19.2159 20.061C30.2948 8.48568 45.2217 1.90665 61.2348 1.56528C66.6656 1.44115 72.0344 2.06182 77.1859 3.33417C87.1785 5.84786 96.3954 10.9063 104.03 18.1991C115.605 29.2779 122.153 44.2048 122.494 60.2179C122.836 76.2311 116.908 91.4373 105.829 102.982V103.013Z"></path>
<path fill="#8A2432" d="M119.081 46.0979C114.953 30.9847 105.178 18.3853 91.5853 10.627C77.9927 2.83765 62.1658 0.851531 47.0837 4.97894C31.9706 9.10635 19.3711 18.8508 11.6128 32.4433C3.82349 46.0668 1.83737 61.8627 5.96478 76.9759C10.0922 92.089 19.8676 104.688 33.4602 112.447C42.4287 117.567 52.3904 120.174 62.4451 120.174C67.6277 120.174 72.8412 119.491 77.9927 118.064C93.1059 113.936 105.705 104.161 113.464 90.5684C121.222 76.9759 123.239 61.1489 119.112 46.0358L119.081 46.0979ZM112.812 90.258C105.147 103.695 92.7024 113.347 77.7755 117.412C72.7171 118.809 67.5656 119.491 62.4141 119.491C52.4835 119.491 42.646 116.916 33.8015 111.857C20.3642 104.192 10.7129 91.7476 6.64751 76.8207C2.58217 61.8937 4.53725 46.2841 12.2335 32.8467C19.8987 19.3783 32.343 9.72701 47.2699 5.66167C52.3283 4.26518 57.4798 3.58245 62.6313 3.58245C72.5619 3.58245 82.3994 6.1582 91.2439 11.2166C104.681 18.8818 114.333 31.3261 118.398 46.253C122.463 61.18 120.508 76.7897 112.812 90.227V90.258Z"></path>
<path fill="#8A2432" d="M92.4544 47.6491C88.8235 39.6425 82.2755 33.529 74.0207 30.4257C67.3796 27.943 60.3041 27.6637 53.6009 29.5257L54.3767 29.9291C55.3698 29.6809 56.3318 29.4636 57.3249 29.2774C62.8177 28.4085 68.4658 28.9361 73.8035 30.9532C81.9031 33.9945 88.327 40.0149 91.8958 47.8663C91.9889 48.0835 92.082 48.3318 92.1751 48.549C92.7337 48.9524 93.1371 49.6041 93.3233 50.38L94.9681 58.1072C95.1543 58.9141 95.0612 59.8451 94.7819 60.714C94.844 64.7173 94.1612 68.7516 92.7027 72.5997C91.7717 75.0824 90.5614 77.3788 89.1028 79.5201L88.0167 81.9407C90.22 79.2408 91.9889 76.1375 93.2302 72.7859C96.3335 64.5311 96.0232 55.5935 92.3923 47.587L92.4544 47.6491Z"></path>
<path fill="#8A2432" d="M30.1708 63.3832C29.426 51.8079 34.981 40.3877 45.0668 33.9638C45.0978 33.7156 45.1599 33.4363 45.2219 33.188C34.5465 39.736 28.6812 51.7148 29.6122 63.8487C29.7984 63.6936 29.9846 63.5384 30.1708 63.3832Z"></path>
<path fill="#8A2432" d="M70.2346 92.7096C63.9349 94.2923 57.3248 93.9199 51.0871 91.5924C42.9875 88.5512 36.5636 82.5308 32.9948 74.6794C32.9327 74.5863 32.9017 74.4621 32.8707 74.338L32.0638 73.9346C32.1879 74.2759 32.3431 74.5863 32.4672 74.9276C36.0981 82.9342 42.6461 89.0477 50.9009 92.151C56.3317 94.1992 62.0729 94.7578 67.6588 93.8579C68.8071 93.6717 69.9243 93.4234 71.0415 93.1131L70.2036 92.7407L70.2346 92.7096Z"></path>
<path fill="#8A2432" d="M93.7269 63.3521L91.4925 68.3174C91.1201 69.8069 90.6546 71.2345 90.096 72.631L90.4684 74.3378C90.5305 74.5861 90.5615 74.8653 90.5615 75.1446C92.3615 71.4827 93.4476 67.4795 93.7269 63.3521Z"></path>
<path fill="#8A2432" d="M57.9147 31.7296C70.1107 29.8365 82.555 35.7328 88.6685 46.9048L90.7788 47.8668C84.448 34.4915 69.7693 27.6332 55.8044 30.6744L57.8836 31.7606L57.9147 31.7296Z"></path>
<path fill="#8A2432" d="M32.6225 62.7322C32.126 52.5223 36.9361 42.4986 45.5943 36.6023C45.3461 36.2299 45.1599 35.7644 45.0668 35.2678C45.0668 35.2678 45.0668 35.2678 45.0668 35.2368C35.7879 41.4124 30.6364 52.0568 31.195 62.8874C31.6915 62.7322 32.188 62.6701 32.6225 62.7632V62.7322Z"></path>
<path fill="#8A2432" d="M66.2934 90.9407C61.5143 91.5613 56.6111 91.0027 51.9561 89.2649C45.4081 86.8133 40.0393 82.2514 36.5947 76.262L34.3913 75.1138C37.9291 82.2824 43.9185 87.7753 51.4595 90.5993C56.6421 92.5544 62.1039 93.082 67.4106 92.213C67.814 92.151 68.2485 92.0579 68.6519 91.9648L66.2934 90.9096V90.9407Z"></path>
<path fill="#8A2432" d="M95.03 58.1394L93.3542 50.4122C93.1059 49.4501 92.5473 48.6433 91.7715 48.3019L76.9376 41.6298C76.1308 41.2574 75.1688 41.3815 74.2998 41.847C73.4309 42.3746 72.624 43.2745 72.1275 44.3297L71.5068 45.6951C71.0413 46.7192 70.8862 47.9606 71.1034 48.9226C71.2896 49.6674 71.5999 50.288 72.0965 50.6604L68.3415 59.0394C67.1312 59.3497 65.9829 60.4048 65.3312 61.8634C64.6795 63.2909 64.6485 64.9047 65.2071 66.0218L60.2418 77.0386C59.6211 76.9145 58.9074 77.1007 58.2557 77.442C58.2246 77.442 58.1936 77.5041 58.1315 77.5041C58.0074 76.3869 57.4799 75.4559 56.6109 75.0215C56.3627 74.8973 56.1454 74.556 56.0523 74.1215C55.9592 73.9043 55.9282 73.7181 55.9282 73.5629C55.8972 73.5629 55.9282 73.5008 55.8972 73.5008L56.0523 65.6494L62.6003 62.422C63.5313 61.9565 64.3692 61.1186 64.9278 60.0635L70.0172 50.1949C70.5758 49.1398 70.762 47.9605 70.6069 46.9365L69.3656 39.1161C69.1794 38.123 68.6518 37.3162 67.907 36.9127L51.2112 28.2855C50.4353 27.8821 49.4733 27.9442 48.5423 28.3476C47.6423 28.8131 46.8044 29.682 46.2458 30.7061L45.5631 32.0095C45.0356 33.0336 44.8183 34.2439 44.9735 35.2059C45.1287 35.9507 45.408 36.6024 45.8735 37.0058L41.6529 45.1676C40.4116 45.4158 39.2013 46.4089 38.4876 47.8054C37.7738 49.2019 37.6186 50.8156 38.1462 51.9638L32.5913 62.7013C31.9706 62.5461 31.2568 62.7013 30.6051 63.0116C29.7052 63.4771 28.8673 64.3461 28.3397 65.3391L27.657 66.6425C27.0984 67.6976 26.9122 68.8769 27.0363 69.87C27.2225 70.863 27.7501 71.6699 28.5259 72.0733L37.2152 76.5421C37.991 76.9455 38.891 76.9145 39.822 76.449C40.5978 76.0766 41.2185 75.4559 41.746 74.7111C41.746 74.8042 41.746 74.8973 41.746 74.9904V76.6352C41.684 78.0006 42.2736 79.1489 43.2356 79.6454L52.4835 84.4245C53.2283 84.7969 54.0972 84.7969 54.9972 84.3935C55.2455 85.3555 55.8041 86.1624 56.5799 86.5037L73.7102 94.1999C74.486 94.5413 75.448 94.4482 76.317 93.9827L83.2063 90.1036C84.1063 89.607 84.9132 88.7071 85.4097 87.6209L89.9716 77.5041C90.4681 76.4179 90.5922 75.2387 90.375 74.2146L89.8474 71.7009L94.5334 61.3048C95.03 60.2186 95.1851 59.0704 94.9679 58.0463L95.03 58.1394ZM43.4529 71.2975C43.577 70.7389 43.608 70.1493 43.4839 69.6527C43.3598 68.939 43.0494 68.2562 42.615 67.8528L44.3839 64.4392L44.2597 70.6147C44.0735 70.7389 43.9494 70.832 43.7942 70.9871C43.7011 71.1113 43.546 71.2044 43.4529 71.3285V71.2975ZM53.1352 72.0733V72.1354C53.1352 72.1354 53.1352 72.2905 53.1352 72.4767C53.1973 72.725 53.2593 73.0974 53.3524 73.4698C53.6007 74.2767 54.0662 75.1146 54.9351 75.549C55.1834 75.6732 55.3696 76.0455 55.3696 76.449L55.3075 78.1558C55.3075 78.6213 55.0903 79.0558 54.7489 79.3661C54.3765 79.6764 53.9731 79.7385 53.6628 79.5833L44.4149 74.8042C44.1356 74.6491 43.9184 74.3387 43.9184 73.9353L43.9804 72.2285C43.9804 71.763 44.2287 71.2975 44.5701 71.0182C44.9114 70.6768 45.3149 70.5837 45.6562 70.7389C45.9045 70.863 46.0907 70.9251 46.1528 70.9561C46.2148 70.7699 46.3079 70.4286 46.3079 70.2734V70.2113C46.3079 70.2113 46.3079 70.0562 46.3079 69.9941L46.5251 57.2084L44.5701 56.1843L39.6668 65.7115C39.6668 65.7115 39.6358 65.8046 39.5737 65.8977C39.5737 65.9287 39.5737 65.9908 39.5117 66.0839C39.4806 66.2391 39.4186 66.4253 39.4186 66.6425C39.4186 67.077 39.4186 67.5425 40.2875 67.9769C40.5047 68.1321 40.6599 68.3493 40.7219 68.6597C40.784 68.97 40.7219 69.3114 40.5357 69.6217L39.822 70.9871C39.6668 71.2975 39.4186 71.5147 39.1393 71.7009C38.86 71.825 38.5807 71.794 38.3634 71.7009L29.6741 67.2321C29.4569 67.108 29.2707 66.9218 29.2087 66.6115C29.2087 66.2701 29.2086 65.9598 29.3948 65.6494L30.1086 64.284C30.2638 63.9737 30.512 63.7254 30.7913 63.5702C31.0706 63.4461 31.3499 63.4771 31.5982 63.5392C32.343 63.9116 32.7464 63.7564 33.0568 63.5392C33.3671 63.353 33.6154 63.0116 33.6774 62.8565C33.7085 62.7634 33.7705 62.7323 33.8326 62.6392L40.6909 49.357C40.6288 48.8605 40.4427 48.395 40.2254 48.1157C40.0082 47.7744 40.0082 47.2158 40.2254 46.7503C40.5047 46.2227 40.9392 45.9124 41.3736 45.8813C41.746 45.8813 42.2115 45.7572 42.646 45.54L48.1699 34.8335C48.1699 34.8335 48.2009 34.6784 48.232 34.6473C48.232 34.6473 48.263 34.5232 48.294 34.4611C48.3561 34.2749 48.4182 34.0887 48.4182 33.8405C48.4182 33.437 48.4182 32.9405 47.5492 32.506C47.332 32.3819 47.1768 32.1336 47.1148 31.8233C47.0527 31.513 47.1148 31.1716 47.301 30.8613L47.9837 29.5579C48.1389 29.2476 48.3871 28.9993 48.6664 28.8441C48.9457 28.72 49.225 28.689 49.4733 28.8131L66.1691 37.4403C66.3864 37.5644 66.5415 37.8127 66.6036 38.123L67.8449 45.9434C67.907 46.2537 67.8449 46.5951 67.6587 46.9054L62.5383 56.805C62.3831 57.1153 62.1348 57.3636 61.8555 57.5188L54.78 61.0255C54.5007 61.1496 54.2214 61.1807 53.9731 61.0565L53.3214 60.7152L53.1042 71.9802V72.0423L53.1352 72.0733ZM92.0818 58.3256L87.2717 69.001C87.1475 69.2803 86.9924 69.4665 86.8062 69.5907L87.613 73.5319C87.6751 73.8422 87.613 74.1836 87.4889 74.4939L82.927 84.6107C82.7719 84.921 82.5546 85.2003 82.2753 85.3555L75.3549 89.2967C75.0756 89.4519 74.8274 89.4208 74.5791 89.3277L57.4488 81.6315C57.2316 81.5384 57.0144 81.3212 56.9523 81.0419C56.8902 80.7316 56.9523 80.3902 57.0764 80.0799L57.6971 78.6834C57.8522 78.373 58.0695 78.0937 58.3488 77.9386C58.6281 77.7834 58.8763 77.8144 59.1556 77.8765C59.9315 78.2179 60.3349 78.0317 60.6142 77.8144C60.8935 77.6282 61.1418 77.2558 61.2038 77.1007C61.2349 77.0076 61.2969 76.9765 61.328 76.8834L67.4725 63.2599C67.3794 62.7944 67.1932 62.3289 66.945 62.0496C66.6967 61.7082 66.6657 61.1807 66.8829 60.6841C67.1312 60.1566 67.5656 59.7842 67.9691 59.7531C68.3415 59.7531 68.8069 59.598 69.2414 59.3497L74.1757 48.364C74.1757 48.364 74.1757 48.2088 74.2378 48.1778C74.2378 48.1778 74.2688 48.0536 74.2998 47.9916C74.3619 47.8054 74.3929 47.5882 74.3929 47.3709C74.3929 46.9675 74.3309 46.471 73.4619 46.0986C73.2447 46.0055 73.0585 45.7572 72.9964 45.4469C72.9344 45.1365 72.9964 44.7952 73.1206 44.4848L73.7412 43.1194C73.8964 42.809 74.1136 42.5297 74.3929 42.3746C74.6722 42.2194 74.9515 42.1884 75.1998 42.3125L90.0647 49.0157C90.2819 49.1088 90.4681 49.357 90.5302 49.6674L92.2059 57.3946C92.268 57.705 92.2059 58.0463 92.0818 58.3567V58.3256Z"></path>
<path fill="#8A2432" d="M65.9208 38.4639C65.9208 38.4639 65.8277 38.3088 65.7656 38.2777L49.0698 29.6505C49.0698 29.6505 48.8836 29.6195 48.7905 29.6505C48.6974 29.7126 48.6353 29.8057 48.5732 29.9298L47.8905 31.2332C47.8905 31.2332 47.7974 31.4815 47.8284 31.5435C47.8284 31.6677 47.8905 31.7297 47.9836 31.7918C49.0077 32.3194 49.1629 33.0642 49.1318 33.7779C49.1318 34.1193 49.0387 34.3986 48.9767 34.6468C48.9146 34.833 48.8525 34.9572 48.8525 34.9572C48.8525 34.9882 48.8525 35.0503 48.8215 35.1123L43.0804 46.1912C42.5218 46.5015 41.808 46.8118 41.2184 46.7808C41.0632 46.7808 40.908 46.9049 40.8149 47.0601C40.7529 47.1842 40.7218 47.4015 40.8149 47.5256C41.1563 48.0532 41.3425 48.7359 41.4046 49.3876L34.329 63.1042C34.329 63.1042 34.2669 63.1043 34.2669 63.1663C34.2669 63.1663 33.9876 63.6939 33.429 64.1283C32.9015 64.5318 32.2188 64.8421 31.1636 64.2835C31.0705 64.2214 30.9774 64.2525 30.8843 64.2835C30.7912 64.3456 30.7292 64.4387 30.6981 64.5007L29.9844 65.8662C29.9844 65.8662 29.9223 66.0524 29.9223 66.1765C29.9223 66.3007 29.9844 66.3627 30.0775 66.4248L38.7668 70.8936C38.7668 70.8936 38.953 70.9246 39.015 70.8625C39.1392 70.8005 39.2012 70.7384 39.2633 70.6453L39.977 69.2798C39.977 69.2798 40.0391 69.0936 40.0081 68.9695C40.0081 68.8764 39.946 68.7833 39.8839 68.7523C38.8599 68.2247 38.6737 67.4489 38.7047 66.8282C38.7047 66.4869 38.7978 66.1455 38.8599 65.9593C38.953 65.711 39.015 65.5869 38.984 65.5869C38.984 65.5869 38.9943 65.5559 39.015 65.4938L44.3838 55.0977L47.2698 56.5873L47.0526 69.8384C47.0526 69.8384 47.0526 69.9315 47.0216 69.9936C47.0216 69.9936 47.0216 70.2108 46.9905 70.4591C46.9285 70.7074 46.8354 71.0487 46.7423 71.266C46.494 71.6384 46.3078 71.9797 45.2837 71.5142C45.1906 71.4522 45.0354 71.5142 44.9113 71.6073C44.8182 71.7315 44.7251 71.8866 44.7251 72.0108L44.6631 73.7176C44.6631 73.7176 44.7251 73.9659 44.8182 74.0279L54.0661 78.807C54.0661 78.807 54.3144 78.807 54.4385 78.7139C54.5316 78.5898 54.6247 78.4346 54.6247 78.3105L54.6868 76.6037C54.6868 76.6037 54.6557 76.3554 54.5626 76.3244C53.5385 75.7968 52.9799 74.8037 52.7627 73.9038C52.4834 73.0349 52.5144 72.259 52.4834 72.259L52.7006 59.3803L54.4385 60.2802C54.4385 60.2802 54.6247 60.3113 54.6868 60.2492L61.7623 56.7425C61.7623 56.7425 61.9485 56.6183 61.9796 56.5252L67.1 46.6256C67.1 46.6256 67.1931 46.3774 67.1311 46.3153L65.9208 38.4639ZM61.483 56.0597L54.6868 59.4423L52.5144 58.3251C52.5144 58.3251 52.2662 58.3251 52.1731 58.3562C52.08 58.4803 51.9869 58.6355 51.9869 58.8217L51.7386 72.5383C51.7386 72.5383 51.7386 72.5694 51.7386 72.6004C51.7386 73.0969 51.9248 75.8589 53.973 77.0692V77.7829L45.3458 73.3452V72.5694C45.7182 72.6935 46.0285 72.6314 46.3078 72.5694C46.7423 72.4142 47.0836 72.0108 47.2698 71.6384C47.5491 71.0798 47.6422 70.4901 47.6733 70.1798C47.7043 70.0867 47.7353 70.0557 47.7353 69.9936L47.9836 56.2459C47.9836 56.2459 47.9526 55.9977 47.8595 55.9666L44.5389 54.2598C44.5389 54.2598 44.3527 54.2288 44.2907 54.2598C44.1665 54.3219 44.1045 54.3839 44.0424 54.5081L38.3944 65.4317C38.3944 65.4317 38.3323 65.5559 38.3323 65.6179C38.2392 65.8972 38.053 66.4248 37.9909 67.0455C37.9599 67.9144 38.2392 68.8764 39.1702 69.4971L38.8909 70.0557L30.7912 65.8662L31.0705 65.3076C32.1257 65.7421 33.0567 65.4007 33.7083 64.8421C34.2359 64.4387 34.5462 64.0042 34.7324 63.7559C34.7324 63.7249 34.8255 63.6939 34.8566 63.6008L42.0873 49.6048C42.0873 49.6048 42.1494 49.4186 42.1494 49.2945C42.0873 48.7669 41.9942 48.1463 41.7459 47.5877C42.3666 47.4015 42.9252 47.1222 43.3907 46.8739C43.4838 46.8118 43.5459 46.7187 43.5769 46.6567L49.4732 35.2675C49.4732 35.2675 49.4732 35.1744 49.5042 35.1123C49.5973 34.833 49.8146 34.2745 49.8146 33.6228C49.8766 32.8159 49.5973 31.8539 48.6663 31.2022L48.9456 30.6746L65.207 39.0846L66.4173 46.5946L61.483 56.1528V56.0597Z"></path>
<path fill="#8A2432" d="M86.6824 68.7208L91.4925 58.0454C91.4925 58.0454 91.5546 57.7971 91.4925 57.7351L89.8478 49.9768C89.8478 49.9768 89.7547 49.8216 89.6926 49.7906L74.8277 43.0874C74.8277 43.0874 74.6415 43.0874 74.5485 43.0874C74.4864 43.1495 74.3933 43.2426 74.3312 43.3667L73.7106 44.7322C73.7106 44.7322 73.6485 44.9804 73.6485 45.0425C73.6485 45.1666 73.7106 45.2287 73.8347 45.2908C74.8898 45.7563 75.076 46.501 75.076 47.2148C75.076 47.5562 75.045 47.8355 74.9519 48.0837C74.8898 48.2699 74.8277 48.4251 74.8277 48.4251C74.8277 48.4561 74.8277 48.5182 74.8277 48.5803L69.7073 59.9694C69.1487 60.3108 68.4659 60.6522 67.8763 60.6522C67.6901 60.6522 67.566 60.7763 67.5039 60.9625C67.4419 61.0866 67.4419 61.3039 67.535 61.397C67.9074 61.8935 68.1246 62.5762 68.2177 63.2279L61.8869 77.317C61.8869 77.317 61.8249 77.317 61.8249 77.379C61.8249 77.379 61.5766 77.9066 61.049 78.3721C60.5525 78.8066 59.8698 79.1479 58.8146 78.6514C58.7215 78.6204 58.6284 78.6514 58.5353 78.6514C58.4733 78.7135 58.3802 78.8066 58.3491 78.8997L57.7285 80.2962C57.7285 80.2962 57.6664 80.4823 57.6664 80.6065C57.6664 80.7306 57.7285 80.7927 57.8526 80.8547L74.9829 88.551C74.9829 88.551 75.1691 88.551 75.2312 88.5199L82.1205 84.6408C82.1205 84.6408 82.3067 84.5167 82.3688 84.3615L86.9307 74.2447C86.9307 74.2447 86.9927 73.9964 86.9617 73.8723L85.9686 69.2483L86.4341 68.969C86.4341 68.969 86.6203 68.8449 86.6824 68.6897V68.7208ZM85.4721 68.7208C85.2859 68.7828 85.1618 69.0621 85.2239 69.2483L86.279 74.0895L81.8412 83.9581L75.2312 87.682L58.5353 80.172L58.7836 79.5824C59.8387 79.9548 60.7697 79.5824 61.4214 78.9617C61.918 78.5273 62.2283 78.0307 62.3835 77.8135C62.4145 77.7204 62.4765 77.6894 62.5076 77.6583L68.9625 63.29C68.9625 63.29 69.0245 63.1038 69.0245 62.9797C68.9314 62.4521 68.8073 61.8625 68.559 61.3039C69.1487 61.1487 69.7073 60.7763 70.1417 60.497C70.2038 60.4349 70.2969 60.3418 70.3279 60.2487L75.6036 48.5492C75.6036 48.5492 75.6036 48.4561 75.6656 48.363C75.7277 48.1148 75.9139 47.5562 75.8829 46.9045C75.8829 46.0976 75.5725 45.1356 74.6105 44.546L74.8588 44.0184L89.2892 50.5043L90.8719 57.9212L86.2169 68.2863L85.5342 68.6897L85.4721 68.7208Z"></path>
<path fill="#8A2432" d="M61.8556 42.6526C61.8556 42.6526 61.7936 42.4664 61.7005 42.4043L52.9181 37.8735C52.9181 37.8735 52.7319 37.8424 52.6698 37.9045C52.5457 37.9666 52.4836 38.0286 52.4215 38.1217L46.5563 49.4799C46.5563 49.4799 46.4632 49.7281 46.5252 49.7902C46.5252 49.8833 46.5873 49.9764 46.6494 50.0074L55.4318 54.5383C55.4318 54.5383 55.618 54.5693 55.7111 54.5383L58.3489 53.2349C58.3489 53.2349 58.5351 53.1108 58.5661 53.0177L62.228 45.9111C62.228 45.9111 62.3211 45.6628 62.2901 45.5387L61.8246 42.6216L61.8556 42.6526ZM58.1006 52.5522L55.7421 53.7314L47.3631 49.3868L52.825 38.8045L61.2039 43.1491L61.6074 45.7869L58.1316 52.5522H58.1006Z"></path>
<path fill="#8A2432" d="M60.5524 43.8013L53.0113 39.8911L48.3564 48.8907L55.8974 52.8009L57.6973 51.9009L60.8317 45.8184L60.5214 43.8323L60.5524 43.8013ZM56.7043 51.7147L52.1424 49.3562L53.9423 45.8805L58.5042 48.239L56.7043 51.7147Z"></path>
<path fill="#8A2432" d="M81.4993 70.5524C81.4993 70.5524 81.4372 70.3662 81.3131 70.3041L72.3135 66.2388C72.3135 66.2388 72.1273 66.2388 72.0652 66.2698C71.9721 66.3319 71.879 66.3939 71.848 66.487L66.6034 78.1555C66.6034 78.1555 66.5413 78.4038 66.6034 78.4658C66.6034 78.5589 66.6655 78.652 66.7275 78.6831L75.7271 82.7484C75.7271 82.7484 75.9133 82.7484 76.0064 82.7484L78.5822 81.2899C78.5822 81.2899 78.7684 81.1657 78.8305 81.0106L82.0889 73.7798C82.0889 73.7798 82.151 73.5316 82.12 73.4074L81.4993 70.5213V70.5524ZM78.2719 80.6382L75.9754 81.9415L67.3792 78.0624L72.2514 67.2318L80.8476 71.111L81.4062 73.6867L78.2719 80.6692V80.6382Z"></path>
<path fill="#8A2432" d="M80.2267 71.7623L72.4684 68.2866L68.31 77.5035L76.0683 80.9792L77.8372 79.9861L80.6612 73.7174L80.2267 71.7313V71.7623ZM76.8131 79.862L72.1581 77.7517L73.7718 74.1829L78.4268 76.2932L76.8131 79.862Z"></path>
<path fill="#8A2432" d="M86.0302 54.3522C86.0302 54.3522 85.9681 54.166 85.906 54.135L79.1408 51.0938C79.1408 51.0938 78.9546 51.0938 78.8925 51.1248C78.7994 51.1869 78.7063 51.2489 78.6753 51.342L74.1134 61.4588C74.1134 61.4588 74.0514 61.645 74.1134 61.7692C74.1134 61.8623 74.1755 61.9554 74.2376 61.9864L82.5234 65.7104C82.5234 65.7104 82.7096 65.7104 82.7717 65.6793H82.9268C82.9268 65.6793 83.082 65.4931 83.1441 65.338L86.6508 57.5487C86.6508 57.5487 86.7129 57.3004 86.7129 57.2073L86.0612 54.3212L86.0302 54.3522ZM82.6165 64.8414L74.8582 61.3657L79.0477 52.0558L85.3785 54.9108L85.906 57.5176L82.6165 64.8414Z"></path>
<path fill="#8A2432" d="M84.7886 55.5945L79.2957 53.1118L75.82 60.808L82.368 63.7562L85.161 57.5496L84.7576 55.5945H84.7886ZM82.0887 62.1735L79.6681 61.0873L80.5681 59.0702L82.9887 60.1563L82.0887 62.1735Z"></path>
<path fill="#8A2432" d="M48.1394 23.8168C47.6739 23.7237 48.1394 23.4134 47.9842 22.9479C46.6808 22.079 45.4705 21.179 44.6326 20.217C44.3223 20.217 44.1051 20.3411 44.012 19.9997C43.5465 19.9066 42.8948 19.9066 42.3982 19.8756C42.4603 19.9997 42.5844 20.0928 42.3982 20.1859C41.9017 20.1859 42.4913 19.7515 42.1189 19.7204C41.6845 20.1239 40.8776 18.4481 41.0638 18.2619C40.6914 18.0136 39.9466 17.9515 40.0397 17.424C39.4501 17.5171 39.388 18.1067 38.5501 17.9826C37.9605 17.2067 37.1536 16.5861 36.1295 16.8344C36.1295 16.3689 35.8192 16.7413 35.633 16.7413C35.3227 16.6171 35.1675 16.4309 34.8882 16.6482C34.6089 15.7792 32.3435 16.7102 31.7228 16.6482C31.4125 17.3309 28.5264 17.7653 28.8367 18.6343C27.9057 19.0687 27.1299 20.1239 26.8196 21.0859C25.8576 22.141 25.4541 24.003 25.1128 25.1512C25.1128 26.7029 25.6403 28.2546 26.1369 29.4648C26.4472 30.1165 27.5333 31.513 28.2161 31.6372C28.6195 32.1958 29.3022 32.382 29.7677 32.8164C30.047 32.8164 30.1712 32.7544 30.2643 33.0337C31.1332 33.2819 32.3435 34.2129 32.9021 33.0337C33.1193 32.8164 33.3676 32.5992 33.6158 32.3509C33.6469 32.3509 33.6779 32.3509 33.7089 32.3509C34.3296 32.3509 35.0123 32.2889 35.5709 31.9785C36.6261 32.2578 38.0226 31.482 39.1087 30.8613C40.2569 30.551 39.9776 29.5579 39.1087 29.0614C39.0156 28.9683 38.8915 28.8131 38.9846 28.689C38.9846 28.658 39.0466 28.5959 39.0466 28.5649C38.9846 28.4718 38.9536 28.3787 38.8915 28.2856C38.8915 28.2235 38.8294 28.1925 38.8294 28.1304C38.7053 28.0373 38.5501 27.9753 38.426 27.9442C38.3639 27.727 38.2088 27.5408 37.9915 27.4477C37.9915 27.4477 37.9915 27.4167 38.0226 27.3856C37.9605 27.0443 38.3019 26.8891 38.5191 26.6098C38.6743 26.2064 38.426 26.0202 38.9846 25.9581C38.8294 25.2133 39.6363 25.3685 39.9156 24.5616C41.9638 24.2513 40.7845 23.3513 41.9017 23.8478C41.9948 23.5375 42.0258 23.4444 41.7465 23.2272C41.9948 23.1651 42.1189 23.1651 42.181 22.9789C42.181 22.8858 42.1189 22.8238 42.0879 22.7617C42.0258 22.6686 41.9638 22.5134 41.9017 22.4514C41.8086 22.3583 41.7155 22.2962 41.6534 22.2652C41.6224 22.2652 41.5603 22.2341 41.5293 22.2031C41.4052 22.079 41.3741 21.8307 41.5603 21.7376C41.7155 21.6445 41.8396 21.5514 41.9948 21.4893C42.0569 21.4893 42.15 21.4893 42.212 21.4893C42.212 21.4583 42.2741 21.3962 42.3051 21.3342C42.3051 21.3962 42.3051 21.4583 42.3051 21.5204C42.3362 21.5514 42.3982 21.6135 42.3982 21.6755C42.3982 21.7376 42.3982 21.7997 42.3982 21.8307C42.5224 21.8617 42.4603 21.9859 42.3982 22.11C42.4603 22.1721 42.4913 22.2341 42.5224 22.2962C42.8637 22.2031 42.9879 22.9789 42.8017 22.9789C42.8017 23.072 42.8637 23.1651 42.8637 23.2892C42.8637 23.3513 42.8637 23.4444 42.8948 23.5065C42.8948 23.5065 42.8948 23.5065 42.8948 23.4754C42.8948 23.6306 42.9568 23.8789 42.9258 23.8789C42.9258 24.0651 42.9568 24.2513 42.9879 24.4375C42.9879 24.4375 42.9879 24.4685 42.9879 24.4995C42.9879 24.5616 43.0189 24.5926 43.0499 24.6547C43.0499 24.6547 43.0499 24.7168 43.081 24.7168C43.143 24.8409 43.2051 24.934 43.2672 25.0271C43.3913 25.0892 43.4844 25.2133 43.4844 25.3995C43.4844 25.4305 43.4844 25.4616 43.4844 25.4926C43.7016 25.4926 43.8568 25.7409 43.5465 25.7719C43.4534 25.7719 43.3913 25.7719 43.3603 25.7409C43.2982 25.8029 43.2051 25.8029 43.112 25.8029C43.112 25.8029 43.0499 25.8029 43.0189 25.8029C43.0189 25.9271 43.0189 25.9271 42.7396 25.9271C42.7396 25.834 42.7706 25.7719 42.8017 25.7098C42.8017 25.7098 42.7396 25.7098 42.7086 25.6788C42.6465 25.6788 42.5844 25.6478 42.5534 25.5857C42.4293 25.5236 42.3362 25.4305 42.212 25.3685C42.181 25.3685 42.1189 25.3685 42.0879 25.3374C42.0879 25.3374 42.0879 25.3064 42.1189 25.2754C41.9327 25.0892 41.7465 24.903 41.5603 24.7478C41.5603 24.7478 41.5603 24.7478 41.5603 24.7168C41.3741 24.7168 41.0948 24.7788 40.9707 25.1512C40.1018 25.1512 40.1018 26.5788 39.1708 26.796C39.2639 26.9512 39.2639 27.0753 39.2949 27.2305C39.1087 27.3856 39.419 27.6649 39.2018 27.727C39.2639 27.8511 39.3259 27.9753 39.388 28.0994C39.6983 28.1304 40.0087 28.0684 40.4742 28.3166C40.6604 28.5339 40.8776 28.4097 41.0948 28.5338C41.3431 28.689 41.4052 29.0924 41.8707 28.8752C41.9327 29.2476 42.4603 29.0924 42.6465 29.3407C44.8188 28.9373 45.7498 26.3926 47.1153 25.4305C47.3946 25.3685 47.1773 25.2443 47.1153 25.0892C47.3015 24.6857 47.9842 24.7788 47.5808 24.2513C47.6739 24.0651 48.0773 24.2202 48.0463 23.9099L48.1394 23.8168ZM38.4881 19.0687C38.5501 19.2239 38.7053 19.0687 38.7363 18.9446C38.9225 18.9446 38.7984 19.1929 38.8604 19.317C38.8915 19.3791 39.2328 19.317 39.1087 19.5653C39.8845 19.2239 40.4742 20.1239 40.4121 21.148C40.1949 21.3342 39.5742 21.179 39.419 21.4273C39.2639 21.0549 38.457 20.7756 38.9225 21.3342C38.9225 21.5824 38.6432 21.8307 39.0777 21.9548C38.6743 22.4824 38.5812 20.8687 38.395 20.4963C38.395 19.7825 37.9605 19.2239 38.0536 18.5101C37.8364 18.2308 37.7122 18.355 37.3709 18.386C37.464 18.1998 37.1847 17.7964 37.3709 17.5481C38.1157 18.2619 37.0605 18.0136 38.6432 18.1377C38.6432 18.3239 38.2708 18.1998 38.2708 18.417C38.426 18.6963 38.7363 18.2308 38.8915 18.6343C39.1087 18.4481 39.2949 18.2929 39.7604 18.355C39.9466 18.6653 39.9776 19.1618 40.4121 19.1929C40.4121 19.6584 39.9466 19.0998 39.9156 19.0998C39.6363 19.0377 39.2018 19.348 39.2949 18.8825C39.0466 18.6653 38.6122 18.9446 38.426 18.7894V19.1618L38.4881 19.0687ZM42.6775 21.5514C42.2741 21.0238 42.5224 21.0549 43.0499 21.148C43.7637 21.2721 42.5224 21.179 42.6775 21.5514Z"></path>
<path fill="#8A2432" d="M67.1317 27.3228C66.511 27.3849 66.0765 27.8193 66.0145 28.3779C64.8662 27.4469 62.787 24.9022 61.5457 17.9818C61.5457 17.9818 63.1284 17.3301 62.9422 15.0026L62.5698 10.7511C62.3215 7.80295 59.8389 8.02019 59.8389 8.02019L53.2909 8.57878C54.5632 9.07531 54.8425 9.85114 54.8425 9.85114L56.0218 23.6609C56.0218 23.6609 55.8977 24.4988 54.7184 25.2126L60.3664 24.716C59.063 24.2195 58.8148 23.4126 58.8148 23.4126L58.3803 18.3542H58.8148C58.8148 18.3542 61.7009 30.302 67.1937 29.5262C67.1937 29.5262 67.2558 29.5262 67.2868 29.5262C67.9385 29.4641 68.404 28.9365 68.342 28.3159C68.2799 27.6952 67.7213 27.2607 67.0696 27.3228H67.1317ZM59.9009 15.6233L58.2252 15.7785L57.7907 10.8132L59.4665 10.658C59.6216 10.658 59.7768 10.7821 59.8078 10.9683L60.1802 15.2199C60.1802 15.4371 60.0561 15.5612 59.9009 15.6233Z"></path>
<path fill="#8A2432" d="M69.8004 25.368L64.1834 24.6232C65.4868 24.1887 65.7971 23.3819 65.7971 23.3819L67.6591 9.66521C67.6591 9.66521 67.566 8.82732 66.4178 8.08252L72.0348 8.85835C70.7314 9.29281 70.4211 10.0686 70.4211 10.0686L68.5591 23.7853C68.5591 23.7853 68.6522 24.6232 69.7694 25.399L69.8004 25.368Z"></path>
<path fill="#8A2432" d="M79.4506 13.5439L77.8679 12.9853C77.6817 12.9853 77.4955 13.0163 77.4335 13.2025L73.8957 23.3814C73.8336 23.5986 73.9578 23.7538 74.0819 23.8469L75.6646 24.4055L76.5956 21.7056L80.5678 23.1021C79.2024 23.2883 78.7369 24.002 78.7369 24.002L77.8679 26.4537C77.8679 26.4537 77.7748 27.2916 78.7369 28.2846L72.5613 26.1433C72.5613 26.1433 70.2338 25.3365 71.1958 22.5125L74.7336 12.3336C75.6956 9.5406 78.0541 10.3475 78.0541 10.3475L84.2297 12.4887C82.8643 12.6439 82.4298 13.3577 82.4298 13.3577L81.4988 16.0576C81.4988 16.0576 81.4057 16.8955 82.3677 17.8885L78.3955 16.492L79.4196 13.5749L79.4506 13.5439Z"></path>
<path fill="#8A2432" d="M88.0167 34.4606L83.3617 31.2331C84.7271 31.4193 85.3478 30.8607 85.3478 30.8607L87.0546 28.4091L85.3788 28.0057L84.4478 26.6712L82.8031 29.0608C82.8031 29.0608 82.4928 29.8366 83.1755 31.0469L78.5205 27.8195C79.886 28.0057 80.5066 27.4471 80.5066 27.4471L88.3891 16.0579C88.3891 16.0579 88.6994 15.2821 88.0167 14.0718L92.6716 17.2992C91.3062 17.082 90.6855 17.6406 90.6855 17.6406L86.5271 23.63L87.4581 24.9644L89.1649 25.3368L93.2613 19.4095C93.2613 19.4095 93.5716 18.6337 92.8889 17.4234L97.5438 20.6508C96.1784 20.4336 95.5577 20.9922 95.5577 20.9922L87.6753 32.3813C87.6753 32.3813 87.365 33.1572 88.0477 34.3675L88.0167 34.4606Z"></path>
<path fill="#8A2432" d="M91.8641 39.1463L88.1091 34.8948C89.3814 35.4223 90.1262 35.0189 90.1262 35.0189L100.491 25.8331C100.491 25.8331 100.988 25.1503 100.584 23.8159L104.339 28.0364C103.067 27.5089 102.322 27.9123 102.322 27.9123L91.9882 37.0981C91.9882 37.0981 91.4917 37.7808 91.8641 39.1153V39.1463Z"></path>
<path fill="#8A2432" d="M110.888 38.2461L107.474 40.2012C108.157 39.084 107.847 38.215 107.847 38.215L106.574 36.0427L102.757 38.2461L103.006 38.7116C103.006 38.7116 103.595 39.3943 104.899 39.3633L100.368 41.9701C101.051 40.8529 100.74 39.9839 100.74 39.9839L100.492 39.5184L96.5817 41.7528L97.792 43.8631C97.792 43.8631 98.3817 44.5458 99.7161 44.5458L96.3024 46.5009L92.2061 39.3943C93.3543 40.1701 94.1611 39.9219 94.1611 39.9219L106.14 33.0015C106.14 33.0015 106.761 32.4429 106.636 31.0464L110.764 38.215L110.888 38.2461Z"></path>
<path fill="#8A2432" d="M116.07 57.3624L115.511 51.7144C115.046 53.0177 114.239 53.266 114.239 53.266L100.46 54.6625C100.46 54.6625 99.6224 54.5384 98.8776 53.3901L99.5293 59.9381C99.5293 59.9381 99.7776 62.3898 102.726 62.1105L106.946 61.676C108.591 61.5208 109.305 60.4967 109.305 60.4967C109.305 60.4967 109.801 60.4967 110.174 60.4657L113.339 60.1554C116.287 59.845 116.039 57.3934 116.039 57.3934L116.07 57.3624ZM106.729 58.852L102.508 59.2864C102.291 59.2864 102.167 59.1933 102.105 59.0071L101.919 57.3314L106.884 56.8348L107.039 58.5106C107.039 58.6658 106.915 58.8209 106.729 58.852ZM113.122 57.3314L109.956 57.6417C109.708 57.6417 109.615 57.4555 109.553 57.3003L109.491 56.5555L113.37 56.1521L113.463 56.959C113.463 57.1141 113.339 57.3003 113.153 57.3314H113.122Z"></path>
<path fill="#8A2432" d="M114.394 77.3483C114.022 76.0138 113.246 75.7035 113.246 75.7035L101.143 73.5312C98.1947 73.0036 98.6602 70.552 98.6602 70.552L99.3119 66.828C99.3119 66.828 99.7464 64.3764 102.695 64.904L114.829 67.0453C114.829 67.0453 115.666 67.0142 116.473 65.897L115.48 71.483C115.108 70.1486 114.332 69.8382 114.332 69.8382L102.198 67.697C101.981 67.6659 101.857 67.7901 101.764 67.9452L101.329 70.4589C101.329 70.4589 101.422 70.8003 101.639 70.8313L113.742 73.0036C113.742 73.0036 114.58 72.9726 115.387 71.8554L114.394 77.4414V77.3483Z"></path>
<path fill="#8A2432" d="M97.9784 83.0583L94.4096 81.3825L97.9163 73.9346C97.9474 75.3311 98.5991 75.8276 98.5991 75.8276L111.136 81.7239C111.136 81.7239 111.943 81.9101 113.029 81.0412L110.609 86.1616C110.609 84.7962 109.926 84.2686 109.926 84.2686L98.4439 78.8688L97.4198 81.0722C97.4198 81.0722 97.2026 81.9411 97.9474 83.0273L97.9784 83.0583Z"></path>
<path fill="#8A2432" d="M92.3611 90.5073L89.2578 88.0867L94.3162 81.6318C94.0369 82.9973 94.5645 83.649 94.5645 83.649L105.457 92.1831C105.457 92.1831 106.233 92.5245 107.443 91.9348L103.936 96.4036C104.247 95.0692 103.719 94.4175 103.719 94.4175L93.7266 86.5971L92.237 88.5212C92.237 88.5212 91.8336 89.3281 92.3301 90.5694L92.3611 90.5073Z"></path>
<path fill="#8A2432" d="M97.6055 101.151L89.0093 90.3204C89.0093 90.3204 88.6369 89.5756 89.2266 88.3032L84.1061 92.3686C84.1061 92.3686 82.151 93.9202 84.013 96.2477L90.7162 104.689C92.5471 107.016 94.5022 105.434 94.5022 105.434L99.6227 101.368C98.2882 101.679 97.6365 101.151 97.6365 101.151H97.6055ZM93.354 102.982C93.354 102.982 93.0126 103.044 92.8885 102.889L86.1853 94.4478C86.0612 94.2616 86.1232 94.0754 86.1853 93.9513L87.4887 92.9272L94.6263 101.927L93.3229 102.951L93.354 102.982Z"></path>
<path fill="#8A2432" d="M87.5821 106.551L83.0512 96.8063C81.8099 94.1064 79.5445 95.1616 79.5445 95.1616L77.0308 96.3408C77.0308 96.3408 74.7654 97.396 76.0067 100.096L80.5375 109.84C81.7789 112.509 84.0443 111.454 84.0443 111.454L86.558 110.275C86.558 110.275 88.7923 109.22 87.551 106.551H87.5821ZM84.9132 108.195L83.5477 108.816C83.5477 108.816 83.2064 108.816 83.1133 108.63L78.5824 98.8856C78.4893 98.6994 78.5824 98.5131 78.7066 98.42L80.072 97.7994C80.2582 97.7994 80.4444 97.7994 80.5375 97.9856L85.0684 107.73C85.1615 107.916 85.0684 108.071 84.9132 108.195Z"></path>
<path fill="#8A2432" d="M75.8515 107.669L78.0238 107.234L75.5412 106.179L74.455 100.717C73.8654 97.8 71.4448 98.2655 71.4448 98.2655L65.021 99.5379C66.3864 99.9103 66.7278 100.655 66.7278 100.655L68.0001 107.11C68.0001 107.265 67.9381 107.451 67.876 107.575C67.6277 107.265 67.1622 107.11 66.7278 107.203C66.0761 107.327 65.6416 107.917 65.7658 108.506C65.8899 109.096 66.5105 109.5 67.1622 109.344L73.0585 108.165L73.7723 111.765C73.8033 111.951 73.6792 112.106 73.524 112.168L71.8793 112.479L71.2896 109.437L67.1312 110.275C68.4967 110.648 68.838 111.393 68.838 111.393L69.3966 114.186C69.3966 114.186 69.3966 115.023 68.2484 115.861L74.6723 114.589C74.6723 114.589 77.0928 114.092 76.5343 111.206L75.8205 107.607L75.8515 107.669ZM72.9034 107.327L70.9793 107.7L69.707 101.245L71.3517 100.934C71.5379 100.934 71.6931 101.027 71.7241 101.245L72.9344 107.327H72.9034Z"></path>
<path fill="#8A2432" d="M50.6834 112.136L52.3281 112.509C52.5143 112.509 52.7005 112.416 52.7316 112.229L55.0591 101.709C55.1211 101.492 54.966 101.337 54.8108 101.275L53.1971 100.902L52.5764 103.695L48.449 102.795C49.7834 102.454 50.1558 101.709 50.1558 101.709L50.7144 99.1643C50.7144 99.1643 50.7144 98.3264 49.6283 97.4575L55.99 98.885C55.99 98.885 58.4106 99.4126 57.7589 102.33L55.4315 112.85C54.7798 115.736 52.3592 115.208 52.3592 115.208L45.9974 113.781C47.3318 113.471 47.7042 112.726 47.7042 112.726L48.3249 109.964C48.3249 109.964 48.3249 109.126 47.2387 108.257L51.3661 109.157L50.6834 112.167V112.136Z"></path>
<path fill="#8A2432" d="M35.2288 108.94L36.9667 105.402C37.0288 106.706 37.7425 107.264 37.7425 107.264L40.0079 108.382L41.963 104.409L41.4975 104.192C41.4975 104.192 40.6286 103.975 39.5424 104.72L41.8389 100.034C41.901 101.337 42.6147 101.896 42.6147 101.896L43.0802 102.113L45.0663 98.0786L42.894 96.9924C42.894 96.9924 42.0251 96.7752 40.9079 97.4889L42.6458 93.9512L50.0317 97.5821C48.6352 97.5821 48.1076 98.2337 48.1076 98.2337L42.0251 110.678C42.0251 110.678 41.8389 111.485 42.6768 112.571L35.2288 108.909V108.94Z"></path>
<path fill="#8A2432" d="M37.5255 90.0107C38.0841 91.283 37.6807 92.0278 37.6807 92.0278L34.4222 95.907L34.0809 95.6277C34.0809 95.6277 40.5357 85.1074 36.067 81.7869C36.067 81.7869 36.0359 81.7558 36.0049 81.7248C35.5084 81.3214 34.7946 81.3524 34.3912 81.8179C33.9878 82.2834 34.0809 82.9972 34.5774 83.4006C35.0429 83.804 35.6946 83.773 36.098 83.4316C36.2532 84.8902 35.9118 88.1487 31.9085 93.9208C31.9085 93.9208 30.3258 93.2381 28.8052 95.038L26.0743 98.2965C24.1813 100.562 26.0743 102.145 26.0743 102.145L31.1017 106.365C30.5431 105.124 30.9155 104.379 30.9155 104.379L39.822 93.7967C39.822 93.7967 40.5047 93.3002 41.8391 93.6105L37.4945 89.9486L37.5255 90.0107ZM29.55 101.71L28.2466 100.624C28.2466 100.624 28.0915 100.314 28.2466 100.159L30.9775 96.9C31.1327 96.7449 31.2879 96.7449 31.443 96.8069L32.7464 97.8931L29.55 101.71Z"></path>
<path fill="#8A2432" d="M16.0818 90.382L19.2472 88.0855C18.6886 89.2648 19.061 90.1027 19.061 90.1027L19.8988 91.282L30.1398 83.865C30.1398 83.865 30.6984 83.2444 30.4501 81.8789L33.7707 86.4718C32.5293 85.8201 31.7845 86.1615 31.7845 86.1615L21.5436 93.5784L22.4125 94.7887C22.4125 94.7887 23.0642 95.4094 24.3676 95.2542L21.2022 97.5507L16.0507 90.4441L16.0818 90.382Z"></path>
<path fill="#8A2432" d="M27.129 74.9277L29.4565 80.1103C28.4014 79.2413 27.5635 79.3965 27.5635 79.3965L14.933 85.0445C14.933 85.0445 14.2813 85.5411 14.2192 86.9376L11.8917 81.755C12.9469 82.655 13.7537 82.4688 13.7537 82.4688L26.3842 76.8208C26.3842 76.8208 27.0359 76.3242 27.098 74.9277H27.129Z"></path>
<path fill="#8A2432" d="M8.69524 70.118L12.5123 69.249C11.5193 70.118 11.5503 71.0179 11.5503 71.0179L12.1089 73.4695L16.4225 72.5075L16.2984 72.011C16.2984 72.011 15.926 71.1731 14.6846 70.8007L19.7741 69.6525C18.781 70.5214 18.812 71.4213 18.812 71.4213L18.9362 71.9179L24.4601 70.6766C24.4601 70.6766 25.2049 70.3042 25.5462 68.9697L26.7876 74.4936C25.9186 73.4075 25.0807 73.4075 25.0807 73.4075L11.5813 76.4487C11.5813 76.4487 10.8365 76.8211 10.5262 78.1555L8.72627 70.0559L8.69524 70.118Z"></path>
<path fill="#8A2432" d="M24.864 60.3418L24.9881 66.0209C24.3364 64.8106 23.5296 64.6244 23.5296 64.6244L9.68879 64.9347C9.68879 64.9347 8.88193 65.1519 8.32334 66.3933L8.1992 60.7142C8.81987 61.9555 9.65776 62.1107 9.65776 62.1107L23.4985 61.8004C23.4985 61.8004 24.3054 61.5831 24.895 60.3418H24.864Z"></path>
<path fill="#8A2432" d="M9.75036 48.6733L13.5985 49.3871C12.3571 49.8216 12.0158 50.6595 12.0158 50.6595L11.5503 53.1421L15.8949 53.949L15.988 53.4214C15.988 53.4214 15.988 52.5214 14.9639 51.6836L20.1154 52.6146C18.8741 53.049 18.5327 53.8869 18.5327 53.8869L18.4396 54.4145L22.8774 55.2213L23.3119 52.8318C23.3119 52.8318 23.3119 51.9318 22.2878 51.0629L26.1359 51.7767L24.6463 59.8453C24.2739 58.5109 23.4981 58.1695 23.4981 58.1695L9.87449 55.6868C9.87449 55.6868 9.0366 55.7179 8.22974 56.8351L9.71933 48.6733H9.75036Z"></path>
<path fill="#8A2432" d="M27.316 41.5048L17.5096 37.036C14.8097 35.8257 13.7856 38.0911 13.7856 38.0911L11.0857 44.0185C12.1408 43.1495 12.9477 43.3047 12.9477 43.3047L25.5472 49.0458C25.5472 49.0458 26.1989 49.5424 26.2609 50.9388L28.9608 45.0115C28.9608 45.0115 29.9849 42.7461 27.285 41.5048H27.316ZM25.6713 46.0356L15.2131 41.2875L15.8958 39.7669C15.8958 39.7669 16.1751 39.5497 16.3303 39.6428L26.1368 44.1116C26.323 44.2047 26.3851 44.3909 26.354 44.546L25.6713 46.0666V46.0356Z"></path>
</svg>
